<svg id="Layer_1" data-name="Layer 1" xmlns="http://www.w3.org/2000/svg" viewBox="0 0 214 247.09"><defs><style>.cls-1{fill:#aaa6a0;}.cls-2{fill:#41362f;}</style></defs><title>admin-icon</title><g id="Layer_2" data-name="Layer 2"><g id="Layer_1-2" data-name="Layer 1-2"><polygon class="cls-1" points="107 0 0 61.81 0 185.36 107 247.09 214 185.36 214 61.73 107 0"/><path class="cls-2" d="M101.31,102.09c5.51-8.23,10.95-16.46,16.46-24.69V74.51a7.16,7.16,0,0,1,5.35-3.62,6.34,6.34,0,0,1,5.35,4,15.8,15.8,0,0,1,2.22,8.23v21.24a311.45,311.45,0,0,0,4.53,37.94,151.53,151.53,0,0,1,2.06,22.39,8.23,8.23,0,0,1-1.65,5.6,5.19,5.19,0,0,1-4.12,2.06c-3.79,0-6.26-2.55-7.24-7.49a148.89,148.89,0,0,1-1.89-23.21,198,198,0,0,0-1.07-21.48,63.46,63.46,0,0,0-5.1-20.91,143.71,143.71,0,0,0-10.86,13.33,96.79,96.79,0,0,0-8.72,14.32l-4.94,9.88c-.82,1.65-1.48,3.29-2.14,4.94s-.66,2.72-1.23,5.84a16.46,16.46,0,0,1-2.72,7A5.76,5.76,0,0,1,81,156.9c-3.21,0-8.23-3.29-15.23-9.79a64.28,64.28,0,0,0-15-12c0,.41-1.32,4.77-3.54,13.17A22.31,22.31,0,0,1,41,159.54a32.1,32.1,0,0,1-1.56-5.68,35.15,35.15,0,0,1-.49-5.6A67.82,67.82,0,0,1,40,138.14a83.46,83.46,0,0,0,1-11.28,21.73,21.73,0,0,0-5.51-13,25.6,25.6,0,0,1-6-11.77,14.6,14.6,0,0,0,5.68-.82l4.12-.74a36.38,36.38,0,0,1,0-4.61A19.26,19.26,0,0,1,39.58,91L41,85.63a14.4,14.4,0,0,1,8.23,10,115.89,115.89,0,0,1,1.89,12.76A35,35,0,0,0,60,127.68a68.48,68.48,0,0,0,15.8,13.5c3-4.77,6.09-9.71,9.55-14.73C94.81,112.21,100.32,104,101.31,102.09Z" transform="translate(-19 -1.46)"/><path class="cls-2" d="M150.7,120.11l-4.86.91h-2.63a7.49,7.49,0,0,1-4.61-1.4,6.5,6.5,0,0,1-2.39-3.7,25.52,25.52,0,0,1-.58-3.37c0-2.72,1.56-4.36,4.77-5.1a54.57,54.57,0,0,1,5.43-.74c6.34-.58,12.76-1.4,19.18-2.63l31.52-7.16a56.79,56.79,0,0,0,7.24-2.55A39.67,39.67,0,0,1,215.39,91a7.65,7.65,0,0,1,5.43,2.14,13.83,13.83,0,0,1,3,7.24c-7.41,1.73-15.31,3.79-23.79,6.26l-24.69,7.24C165.35,116.74,157,118.8,150.7,120.11Zm68.73,1.56c.66,4-4.53,7.74-15.64,11.11a183.63,183.63,0,0,1-23.7,5.35c-6.75,2.06-12.35,3.7-16.46,4.86a43.21,43.21,0,0,1-10.37,1.73,7.49,7.49,0,0,1-7.24-3.29,10.45,10.45,0,0,1-1.32-4.61c0-2.3,1.56-4,4.61-5.1a61.24,61.24,0,0,1,9.63-1.89c4.77-.58,10.37-1.48,16.46-2.72q4.86-.91,17-3.7l12.68-4.61a25.35,25.35,0,0,1,7.57-1.73,5.43,5.43,0,0,1,6.3,4.39l0,.22ZM222.55,143a8.72,8.72,0,0,1,1.89,4.61c0,2.22-1.89,4-5.68,5-.74,0-4,.82-9.88,2s-11.77,2.47-17.78,4.2l-31,8.72-3.37.66h-1.07a9.14,9.14,0,0,1-6.34-2,6.17,6.17,0,0,1-2.14-4.77,7.41,7.41,0,0,1,2.47-5.35,14.16,14.16,0,0,1,7.16-3.29l39.34-6.5,12.18-4.61a23,23,0,0,1,7.41-1.73,8.23,8.23,0,0,1,6.42,3Z" transform="translate(-19 -1.46)"/></g></g></svg>