<svg id="Layer_1" data-name="Layer 1" xmlns="http://www.w3.org/2000/svg" viewBox="0 0 27.72 32.01"><defs><style>.cls-1{fill:#f4772e;}.cls-2{fill:#2a2b2a;}</style></defs><title>five-icon</title><polygon class="cls-1" points="13.86 0 0 8.01 0 24.01 13.86 32.01 27.72 24.01 27.72 8 13.86 0"/><path class="cls-2" d="M12.8,13.17,14.93,10V9.6a.93.93,0,0,1,.69-.47.82.82,0,0,1,.69.51,2,2,0,0,1,.29,1.07v2.75a40.35,40.35,0,0,0,.59,4.92,19.63,19.63,0,0,1,.27,2.9,1.07,1.07,0,0,1-.21.73.67.67,0,0,1-.53.27c-.49,0-.81-.33-.94-1a19.29,19.29,0,0,1-.25-3,25.65,25.65,0,0,0-.14-2.78,8.22,8.22,0,0,0-.66-2.71,18.62,18.62,0,0,0-1.41,1.73,12.54,12.54,0,0,0-1.13,1.86l-.64,1.28c-.11.21-.19.43-.28.64a3.86,3.86,0,0,0-.16.76,2.13,2.13,0,0,1-.35.91.75.75,0,0,1-.6.31c-.42,0-1.07-.43-2-1.27a8.33,8.33,0,0,0-1.94-1.56c0,.05-.17.62-.46,1.71A2.89,2.89,0,0,1,5,20.61a4.16,4.16,0,0,1-.2-.74,4.55,4.55,0,0,1-.06-.73,8.79,8.79,0,0,1,.14-1.31A10.81,10.81,0,0,0,5,16.38a2.82,2.82,0,0,0-.71-1.68,3.32,3.32,0,0,1-.78-1.52,1.89,1.89,0,0,0,.74-.11l.53-.1a4.71,4.71,0,0,1,0-.6,2.5,2.5,0,0,1,0-.64L5,11a1.87,1.87,0,0,1,1.07,1.3A15,15,0,0,1,6.3,14a4.53,4.53,0,0,0,1.15,2.5,8.87,8.87,0,0,0,2,1.75c.38-.62.79-1.26,1.24-1.91C12,14.48,12.67,13.41,12.8,13.17Z" transform="translate(-2.14)"/><path class="cls-2" d="M19.2,15.5l-.63.12h-.34a1,1,0,0,1-.6-.18.84.84,0,0,1-.31-.48,3.31,3.31,0,0,1-.07-.44c0-.35.2-.57.62-.66a7.07,7.07,0,0,1,.7-.1c.82-.07,1.65-.18,2.48-.34l4.08-.93a7.36,7.36,0,0,0,.94-.33,5.14,5.14,0,0,1,1.5-.44,1,1,0,0,1,.7.28,1.79,1.79,0,0,1,.39.94c-1,.22-2,.49-3.08.81l-3.2.94C21.1,15.07,20,15.33,19.2,15.5Zm8.9.2c.09.52-.59,1-2,1.44a23.79,23.79,0,0,1-3.07.69l-2.13.63a5.6,5.6,0,0,1-1.34.22,1,1,0,0,1-.94-.43,1.35,1.35,0,0,1-.17-.6c0-.3.2-.52.6-.66a7.93,7.93,0,0,1,1.25-.25c.62-.07,1.34-.19,2.13-.35q.63-.12,2.21-.48l1.64-.6a3.28,3.28,0,0,1,1-.22.7.7,0,0,1,.82.57v0Zm.41,2.76a1.13,1.13,0,0,1,.25.6c0,.29-.25.51-.74.65-.1,0-.52.11-1.28.26s-1.52.32-2.3.54l-4,1.13-.44.09h-.14a1.18,1.18,0,0,1-.82-.26.8.8,0,0,1-.28-.62,1,1,0,0,1,.32-.69,1.83,1.83,0,0,1,.93-.43l5.1-.84,1.58-.6a3,3,0,0,1,1-.22,1.07,1.07,0,0,1,.83.39Z" transform="translate(-2.14)"/></svg>